<?xml version="1.0" encoding="UTF-8"?>
<svg version="1.1" xmlns="http://www.w3.org/2000/svg" width="1080" height="720">
<path d="M0 0 C1.13998097 -0.00807831 1.13998097 -0.00807831 2.30299187 -0.01631981 C4.85726853 -0.03066192 7.41103151 -0.02348048 9.96533203 -0.01637268 C11.79340025 -0.02207295 13.62146491 -0.02903587 15.44952393 -0.03717041 C20.42051463 -0.05515382 25.39132933 -0.05392385 30.36234283 -0.04822803 C34.50775113 -0.04514398 38.65312523 -0.05121978 42.79852867 -0.05726677 C52.57486169 -0.0713271 62.35110735 -0.06973787 72.12744141 -0.05836487 C82.22440625 -0.04687868 92.32110564 -0.06096434 102.41803551 -0.08776134 C111.07796288 -0.10988687 119.73780674 -0.11656294 128.39776039 -0.11068493 C133.5739744 -0.10730701 138.75001817 -0.10978574 143.9262085 -0.12693596 C148.79195357 -0.14235323 153.65730396 -0.13850788 158.52303314 -0.11963081 C160.31171338 -0.11593057 162.10042253 -0.11909492 163.88907623 -0.1295166 C166.32527499 -0.14263069 168.76014851 -0.13126591 171.19628906 -0.11352539 C171.90922056 -0.1231304 172.62215206 -0.1327354 173.35668755 -0.14263147 C176.5242084 -0.0949546 178.18660871 0.01156033 180.568573 2.18853664 C183.04986104 7.48851637 180.27227844 13.63349087 178.42626953 18.80955505 C177.07238083 23.02449157 176.18697842 27.34223396 175.24658203 31.6650238 C174.59814453 34.38768005 174.59814453 34.38768005 173.59814453 36.38768005 C172.93814453 36.38768005 172.27814453 36.38768005 171.59814453 36.38768005 C171.59814453 37.04768005 171.59814453 37.70768005 171.59814453 38.38768005 C168.3999392 39.4537485 166.13182658 39.51085993 162.77058411 39.50793457 C161.55482193 39.50930923 160.33905975 39.5106839 159.0864563 39.51210022 C157.73724341 39.5085611 156.38803076 39.50492629 155.03881836 39.50120544 C153.6196747 39.50092341 152.2005309 39.50108163 150.78138733 39.50164795 C146.92630328 39.50193527 143.07125024 39.496049 139.21617341 39.48907399 C135.18828122 39.48282969 131.16038835 39.4822358 127.13249207 39.48104858 C119.50398575 39.47793845 111.87549373 39.46972933 104.24699372 39.45969909 C95.5626899 39.4485281 86.8783854 39.44302502 78.19407618 39.43800366 C60.32875752 39.42754647 42.46345217 39.40995316 24.59814453 39.38768005 C24.63294922 40.08635193 24.66775391 40.7850238 24.70361328 41.50486755 C24.73068359 42.41494568 24.75775391 43.3250238 24.78564453 44.26268005 C24.83785156 45.62006287 24.83785156 45.62006287 24.89111328 47.00486755 C24.79443359 47.79119568 24.69775391 48.5775238 24.59814453 49.38768005 C20.27246468 52.27146662 17.41864663 51.02138922 12.44970703 50.16893005 C5.77152734 48.81432971 -0.81554212 47.12937524 -7.40185547 45.38768005 C-7.40185547 44.72768005 -7.40185547 44.06768005 -7.40185547 43.38768005 C-8.39185547 43.05768005 -9.38185547 42.72768005 -10.40185547 42.38768005 C-10.47596918 36.88844256 -10.53044011 31.38949527 -10.56665039 25.88987732 C-10.5817442 24.01873206 -10.60222136 22.14762222 -10.62817383 20.27659607 C-10.6645314 17.58827479 -10.68157562 14.90042092 -10.69482422 12.2118988 C-10.71030807 11.37430527 -10.72579193 10.53671173 -10.741745 9.67373657 C-10.7434086 3.94285619 -10.7434086 3.94285619 -9.34318542 1.66686916 C-6.39135 -0.27816636 -3.41881121 -0.02882074 0 0 Z " fill="#383E59" transform="translate(313.40185546875,264.61231994628906)"/>
<path d="M0 0 C0.79011475 0.00563965 1.58022949 0.0112793 2.39428711 0.01708984 C13.35754679 0.24471637 21.63766653 3.53313833 29.87890625 10.875 C31.125 12.3125 31.125 12.3125 31.125 14.3125 C31.785 14.3125 32.445 14.3125 33.125 14.3125 C37.88290684 23.58251775 38.99789211 32.06854527 39.125 42.3125 C39.16355049 43.76043039 39.20261668 45.20834714 39.2421875 46.65625 C39.70368078 69.27702792 39.70368078 69.27702792 34.125 77.3125 C27.71698539 83.44190528 22.6145492 83.46233687 14.21069336 83.45776367 C13.32215668 83.46112228 12.43362 83.4644809 11.51815796 83.46794128 C8.5837056 83.47743057 5.64931049 83.47939377 2.71484375 83.48046875 C0.66565426 83.4836841 -1.38353499 83.48704838 -3.432724 83.49055481 C-7.7307895 83.496542 -12.02883492 83.49839527 -16.3269043 83.49780273 C-21.80845711 83.49770145 -27.28987942 83.51132067 -32.77140141 83.52857494 C-37.00701985 83.53975103 -41.24260738 83.54172018 -45.47823906 83.54119301 C-47.49744552 83.54236595 -49.51665297 83.54674881 -51.5358448 83.55452538 C-69.90626036 83.61862 -89.9011435 83.47319138 -104.17578125 70.16796875 C-112.70561595 61.01438014 -114.1174002 52.36933164 -114.0390625 40.0703125 C-113.74812604 33.40648225 -112.99054112 26.65912336 -110.875 20.3125 C-108.31221301 20.25829299 -105.75058517 20.21872993 -103.1875 20.1875 C-102.46626953 20.17074219 -101.74503906 20.15398437 -101.00195312 20.13671875 C-96.86440779 20.09893295 -93.48293629 20.18388453 -89.875 22.3125 C-87.20506985 25.72142868 -87.7389195 29.32828224 -87.875 33.5 C-88.13644235 45.1039975 -88.13644235 45.1039975 -82.7265625 55.03125 C-69.97959875 63.85193377 -50.75396413 61.45827584 -36 61.375 C-34.4257827 61.36996796 -32.85156381 61.36540811 -31.27734375 61.36132812 C-27.47652232 61.3504736 -23.67577944 61.33330602 -19.875 61.3125 C-20.41552002 61.11479004 -20.95604004 60.91708008 -21.51293945 60.71337891 C-22.22667725 60.44960449 -22.94041504 60.18583008 -23.67578125 59.9140625 C-24.38130127 59.65447754 -25.08682129 59.39489258 -25.8137207 59.12744141 C-32.85747247 56.34264413 -35.90957486 52.02310351 -38.875 45.3125 C-41.57976472 37.1297308 -40.78137533 27.25251831 -37.11328125 19.55078125 C-36.50033203 18.44283203 -36.50033203 18.44283203 -35.875 17.3125 C-35.49730469 16.60480469 -35.11960937 15.89710938 -34.73046875 15.16796875 C-29.61890577 7.09139039 -20.06761559 2.75149791 -10.97705078 0.66992188 C-7.31748874 0.04766882 -3.70536606 -0.02778528 0 0 Z M-8.875 20.3125 C-14.00787125 25.86155 -14.20457915 29.70261192 -14.171875 37.09375 C-13.7347606 41.83299036 -12.20366049 43.98383951 -8.875 47.3125 C-7.24027118 47.39950342 -5.60185945 47.41951063 -3.96484375 47.41015625 C-2.48081055 47.40532227 -2.48081055 47.40532227 -0.96679688 47.40039062 C0.59458008 47.38782227 0.59458008 47.38782227 2.1875 47.375 C3.23228516 47.37048828 4.27707031 47.36597656 5.35351562 47.36132812 C7.9440666 47.34949913 10.53450559 47.33301689 13.125 47.3125 C13.17929278 44.60389335 13.21881211 41.89639099 13.25 39.1875 C13.26675781 38.42695313 13.28351563 37.66640625 13.30078125 36.8828125 C13.35200589 30.94075399 12.67002061 26.41934629 9.0625 21.5 C3.6687322 17.48336441 -2.86534406 17.23779231 -8.875 20.3125 Z " fill="#3A3F49" transform="translate(638.875,255.6875)"/>
<path d="M0 0 C0.7430964 -0.00467997 1.4861928 -0.00935994 2.25180727 -0.01418173 C4.74304975 -0.02615252 7.23374424 -0.01666655 9.72499084 -0.00723267 C11.51055218 -0.01129748 13.296111 -0.01663886 15.08166504 -0.02316284 C19.93291143 -0.03685393 24.78396669 -0.03153013 29.63521647 -0.02202559 C34.70978869 -0.01443711 39.78434439 -0.02147245 44.85891724 -0.02618408 C53.38233888 -0.0316445 61.90568259 -0.02444304 70.42909241 -0.01016235 C80.28458594 0.00615946 90.13989324 0.00088019 99.99538225 -0.01564157 C108.45408597 -0.02925453 116.91273362 -0.03117687 125.37144476 -0.02332556 C130.42471307 -0.01864733 135.47789385 -0.01802823 140.53115654 -0.02793503 C145.28278508 -0.03659943 150.03417354 -0.03059235 154.78577614 -0.01325226 C156.53007483 -0.00928439 158.27439372 -0.0104266 160.01868439 -0.01704025 C162.39920391 -0.02523419 164.77895341 -0.01496064 167.15942383 0 C167.85028373 -0.00669217 168.54114364 -0.01338433 169.25293869 -0.02027929 C173.54394499 0.03205327 176.17199019 0.85953968 179.64320374 3.38095093 C179.30566904 10.24415649 177.97762147 16.62416567 176.26820374 23.25595093 C176.05913391 24.0884436 175.85006409 24.92093628 175.63465881 25.77865601 C173.58105805 33.50336029 173.58105805 33.50336029 170.64320374 36.38095093 C167.44499841 37.44701937 165.17688578 37.50413081 161.81564331 37.50120544 C160.59988113 37.50258011 159.38411896 37.50395477 158.1315155 37.50537109 C156.78230261 37.50183197 155.43308997 37.49819716 154.08387756 37.49447632 C152.66473391 37.49419428 151.2455901 37.49435251 149.82644653 37.49491882 C145.97136248 37.49520615 142.11630945 37.48931987 138.26123261 37.48234487 C134.23334042 37.47610056 130.20544755 37.47550667 126.17755127 37.47431946 C118.54904495 37.47120933 110.92055294 37.46300021 103.29205292 37.45296997 C94.6077491 37.44179898 85.9234446 37.43629589 77.23913538 37.43127453 C59.37381672 37.42081735 41.50851138 37.40322404 23.64320374 37.38095093 C23.5826178 38.16341187 23.52203186 38.9458728 23.45960999 39.75204468 C23.37582092 40.76395874 23.29203186 41.7758728 23.20570374 42.81845093 C23.1244928 43.82778687 23.04328186 44.8371228 22.95960999 45.87704468 C22.64320374 48.38095093 22.64320374 48.38095093 21.64320374 49.38095093 C15.62525563 49.80621926 10.3248913 48.56515252 4.51820374 47.06845093 C3.1975592 46.74844116 3.1975592 46.74844116 1.85023499 46.42196655 C-7.73819763 43.99954957 -7.73819763 43.99954957 -11.35679626 40.38095093 C-11.49501868 37.67712987 -11.56992965 35.00066344 -11.59507751 32.29501343 C-11.60314926 31.48228973 -11.61122101 30.66956604 -11.61953735 29.83221436 C-11.6333929 28.10889835 -11.64410845 26.38555473 -11.65196228 24.66220093 C-11.66918075 22.02365235 -11.71305224 19.38635478 -11.75718689 16.74813843 C-11.76731291 15.07627267 -11.7758293 13.40439623 -11.78257751 11.73251343 C-11.8000856 10.9418045 -11.81759369 10.15109558 -11.83563232 9.33642578 C-11.81397665 3.87867461 -11.81397665 3.87867461 -9.78722286 1.6721859 C-6.52822919 -0.05924948 -3.60028094 -0.03476266 0 0 Z " fill="#555A62" transform="translate(314.35679626464844,318.6190490722656)"/>
<path d="M0 0 C1.53521262 -0.00135685 3.07042491 -0.00313837 4.6056366 -0.00531006 C8.76134005 -0.00985525 12.91701857 -0.0081056 17.07272243 -0.00493097 C21.44490561 -0.00238682 25.81708675 -0.00475113 30.18927002 -0.00631714 C37.5430133 -0.00813516 44.89674653 -0.00574457 52.25048828 -0.00097656 C60.70265954 0.00444105 69.15480658 0.00272021 77.60697722 -0.00280297 C84.89826339 -0.00737377 92.18954234 -0.00796469 99.48082948 -0.0053643 C103.81963893 -0.00382004 108.1584371 -0.00355562 112.49724579 -0.00690079 C147.06002152 -0.0300227 147.06002152 -0.0300227 163.81347656 1.12939453 C165.39899221 5.54095085 166.03278306 8.00501679 164.80175781 12.57080078 C164.40633789 14.06450195 164.40633789 14.06450195 164.00292969 15.58837891 C163.71353516 16.61253906 163.42414063 17.63669922 163.12597656 18.69189453 C162.85591797 19.71992188 162.58585938 20.74794922 162.30761719 21.80712891 C159.7669118 31.16347356 159.7669118 31.16347356 156.81347656 35.12939453 C153.06463245 37.02427327 149.99078264 37.37727659 145.82133484 37.36990356 C144.01881004 37.37402756 144.01881004 37.37402756 142.17987061 37.37823486 C140.87004211 37.37104431 139.56021362 37.36385376 138.21069336 37.35644531 C136.81095895 37.35588088 135.41122394 37.35619838 134.01148987 37.35733032 C130.21846643 37.3579036 126.42556976 37.34615341 122.63257575 37.33218241 C118.66609323 37.31967083 114.69960773 37.31850421 110.73310852 37.31613159 C103.22506197 37.30991808 95.71707374 37.29350901 88.20905286 37.27343261 C79.66013558 37.2510696 71.1112155 37.24007917 62.56227624 37.23004174 C44.9793093 37.20914267 27.3963991 37.17396919 9.81347656 37.12939453 C9.83667969 37.74427734 9.85988281 38.35916016 9.88378906 38.99267578 C9.90183594 39.80091797 9.91988281 40.60916016 9.93847656 41.44189453 C9.96167969 42.24240234 9.98488281 43.04291016 10.00878906 43.86767578 C9.81347656 46.12939453 9.81347656 46.12939453 7.81347656 49.12939453 C-0.21552018 48.57567062 -7.50398647 46.44815569 -15.18652344 44.12939453 C-16.42144531 43.81873047 -17.65636719 43.50806641 -18.92871094 43.18798828 C-23.4189257 41.72893768 -23.4189257 41.72893768 -25.18652344 39.12939453 C-25.4725547 36.353297 -25.58317686 33.80629926 -25.54980469 31.03173828 C-25.55030319 30.24166885 -25.5508017 29.45159943 -25.55131531 28.6375885 C-25.54897651 26.96906008 -25.53925937 25.30052802 -25.52270508 23.63208008 C-25.49907909 21.07292289 -25.50214935 18.51480516 -25.50878906 15.95556641 C-25.50321335 14.33511747 -25.49610415 12.71467292 -25.48730469 11.09423828 C-25.48821609 10.32651596 -25.4891275 9.55879364 -25.49006653 8.76780701 C-25.41756378 3.36043487 -25.41756378 3.36043487 -23.18652344 1.12939453 C-15.55234489 -0.35355782 -7.74680632 -0.01151512 0 0 Z " fill="#3E434D" transform="translate(328.1865234375,370.87060546875)"/>
<path d="M0 0 C1.7480896 0.01015137 1.7480896 0.01015137 3.53149414 0.02050781 C4.41699951 0.02920898 5.30250488 0.03791016 6.21484375 0.046875 C6.2912059 7.57244329 6.34357451 15.09791082 6.37963867 22.6237793 C6.39468085 25.18143447 6.41511964 27.73906404 6.44116211 30.29663086 C6.47774579 33.98297463 6.49461643 37.66897591 6.5078125 41.35546875 C6.52329636 42.49020126 6.53878021 43.62493378 6.55473328 44.79405212 C6.55654992 53.45616421 5.224569 60.7275698 0.27734375 67.984375 C-0.20605469 68.71527344 -0.68945312 69.44617188 -1.1875 70.19921875 C-2.90799759 72.18893846 -4.37264781 73.05165014 -6.78515625 74.046875 C-6.78515625 74.706875 -6.78515625 75.366875 -6.78515625 76.046875 C-23.84502269 85.14829258 -23.84502269 85.14829258 -32.78515625 86.046875 C-34.02845703 86.20736328 -34.02845703 86.20736328 -35.296875 86.37109375 C-43.50031566 87.33842136 -50.89930184 87.73142118 -58.78515625 85.046875 C-58.66897981 83.67110139 -58.54169848 82.29626455 -58.41015625 80.921875 C-58.34054687 80.15617187 -58.2709375 79.39046875 -58.19921875 78.6015625 C-57.7145737 75.61139398 -56.80089072 72.89588631 -55.78515625 70.046875 C-54.59019531 69.94890625 -53.39523437 69.8509375 -52.1640625 69.75 C-36.60973124 68.4068641 -36.60973124 68.4068641 -23.78515625 60.046875 C-21.23450333 54.94556916 -19.66993216 50.39329693 -19.64331055 44.70898438 C-19.63627609 43.86130493 -19.62924164 43.01362549 -19.62199402 42.14025879 C-19.61782974 41.23287964 -19.61366547 40.32550049 -19.609375 39.390625 C-19.58618702 37.46222854 -19.56207011 35.53384307 -19.53710938 33.60546875 C-19.50193228 30.57039921 -19.47260716 27.53573737 -19.45922852 24.50048828 C-19.44377691 21.56753625 -19.4035998 18.63576566 -19.359375 15.703125 C-19.36128342 14.79574585 -19.36319183 13.8883667 -19.36515808 12.95349121 C-19.24315143 6.68201405 -19.24315143 6.68201405 -16.96411133 3.52148438 C-11.66945007 -0.06168134 -6.18596163 -0.04665716 0 0 Z " fill="#3B404A" transform="translate(735.78515625,269.953125)"/>
<path d="M0 0 C1.07765625 0.00902344 2.1553125 0.01804687 3.265625 0.02734375 C4.08546875 0.03894531 4.9053125 0.05054688 5.75 0.0625 C6.60144712 2.44655194 6.81967512 3.78576222 6.1953125 6.265625 C4.75 8.0625 4.75 8.0625 1.9296875 8.671875 C0.83914063 8.71828125 -0.25140625 8.7646875 -1.375 8.8125 C-2.47070312 8.86921875 -3.56640625 8.9259375 -4.6953125 8.984375 C-5.95988281 9.02304687 -5.95988281 9.02304687 -7.25 9.0625 C-7.58 11.7025 -7.91 14.3425 -8.25 17.0625 C-1.98 17.0625 4.29 17.0625 10.75 17.0625 C10.75 14.7525 10.75 12.4425 10.75 10.0625 C12.02408535 6.00135293 13.57860685 3.82582546 17.1875 1.6875 C22.47707588 -0.68640649 28.06575307 -0.47094471 33.75 0.0625 C34.41 0.3925 35.07 0.7225 35.75 1.0625 C35.42 3.3725 35.09 5.6825 34.75 8.0625 C28.81 8.5575 28.81 8.5575 22.75 9.0625 C22.42 11.7025 22.09 14.3425 21.75 17.0625 C25.38 17.0625 29.01 17.0625 32.75 17.0625 C32.75 19.7025 32.75 22.3425 32.75 25.0625 C29.12 25.0625 25.49 25.0625 21.75 25.0625 C21.75 34.6325 21.75 44.2025 21.75 54.0625 C17.79 54.0625 13.83 54.0625 9.75 54.0625 C9.75 44.4925 9.75 34.9225 9.75 25.0625 C3.81 25.0625 -2.13 25.0625 -8.25 25.0625 C-8.25 34.6325 -8.25 44.2025 -8.25 54.0625 C-11.50303044 55.68901522 -14.64225602 55.17703156 -18.25 55.0625 C-19.25 54.0625 -19.25 54.0625 -19.36352539 51.28686523 C-19.35828857 50.07716064 -19.35305176 48.86745605 -19.34765625 47.62109375 C-19.34443359 46.31591797 -19.34121094 45.01074219 -19.33789062 43.66601562 C-19.32953401 42.2773431 -19.32106905 40.88867123 -19.3125 39.5 C-19.30748666 38.10742344 -19.30292347 36.71484519 -19.29882812 35.32226562 C-19.28699434 31.9023013 -19.2705088 28.48242156 -19.25 25.0625 C-20.03375 25.10375 -20.8175 25.145 -21.625 25.1875 C-24.25 25.0625 -24.25 25.0625 -26.25 23.0625 C-26.4375 20.5 -26.4375 20.5 -26.25 18.0625 C-25.25 17.0625 -25.25 17.0625 -22.1875 17 C-20.7334375 17.0309375 -20.7334375 17.0309375 -19.25 17.0625 C-19.3325 16.03125 -19.415 15 -19.5 13.9375 C-19.20486439 9.3628981 -18.17527181 7.54120161 -15.25 4.0625 C-10.23093038 0.42367453 -6.10316842 -0.06633879 0 0 Z " fill="#434851" transform="translate(661.25,362.9375)"/>
<path d="M0 0 C0.99902344 -0.01611328 1.99804688 -0.03222656 3.02734375 -0.04882812 C10.82164658 -0.05392244 17.62319832 0.70683194 23.75 5.8125 C27.32638207 10.28297758 27.2746798 14.8130784 26.75 20.3125 C24.87082857 24.90603016 21.63986112 27.39510416 17.75 30.3125 C16.76 30.6425 15.77 30.9725 14.75 31.3125 C14.42 31.9725 14.09 32.6325 13.75 33.3125 C15.235 33.8075 15.235 33.8075 16.75 34.3125 C18.48519218 36.36344501 20.09822153 38.40410398 21.6875 40.5625 C22.55036722 41.71385207 23.41364316 42.86489796 24.27734375 44.015625 C24.89585205 44.85383789 24.89585205 44.85383789 25.52685547 45.70898438 C26.66673877 47.20334635 27.89527931 48.628913 29.12890625 50.046875 C29.66386719 50.79453125 30.19882812 51.5421875 30.75 52.3125 C30.42 53.3025 30.09 54.2925 29.75 55.3125 C18.66184211 55.12072368 18.66184211 55.12072368 15 51.875 C13.75 49.3125 13.75 49.3125 13.75 47.3125 C13.09 47.3125 12.43 47.3125 11.75 47.3125 C11.09 45.6625 10.43 44.0125 9.75 42.3125 C9.09 42.3125 8.43 42.3125 7.75 42.3125 C6.16003231 40.64668064 4.65083904 38.90308612 3.1875 37.125 C1.97900391 35.68060547 1.97900391 35.68060547 0.74609375 34.20703125 C-1.19079792 31.39834881 -2.00451254 29.68346192 -2.25 26.3125 C-0.16941343 24.23191343 4.16960849 24.93206592 6.98828125 24.7890625 C10.12011074 24.24863365 11.55838048 23.60677149 13.75 21.3125 C14.30585139 19.10710112 14.30585139 19.10710112 14.125 16.75 C14.11210938 15.96496094 14.09921875 15.17992187 14.0859375 14.37109375 C13.91989352 12.09306638 13.91989352 12.09306638 11.75 10.3125 C6.47 9.6525 1.19 8.9925 -4.25 8.3125 C-4.25 23.4925 -4.25 38.6725 -4.25 54.3125 C-8.21 54.3125 -12.17 54.3125 -16.25 54.3125 C-16.25 37.1525 -16.25 19.9925 -16.25 2.3125 C-10.4617595 -0.0027962 -6.13371808 -0.01948449 0 0 Z " fill="#3A3F49" transform="translate(561.25,362.6875)"/>
<path d="M0 0 C3.39805231 1.90908757 4.99935554 3.08333271 6.47705078 6.78125 C7.43711212 10.22057945 7.62767452 13.01214466 7.59375 16.57421875 C7.58730469 17.77304687 7.58085938 18.971875 7.57421875 20.20703125 C7.55746094 21.44453125 7.54070313 22.68203125 7.5234375 23.95703125 C7.51441406 25.21773438 7.50539063 26.4784375 7.49609375 27.77734375 C7.47259558 30.87910165 7.43974084 33.98046777 7.3984375 37.08203125 C4.0984375 37.08203125 0.7984375 37.08203125 -2.6015625 37.08203125 C-2.6015625 36.09203125 -2.6015625 35.10203125 -2.6015625 34.08203125 C-3.3440625 34.55640625 -4.0865625 35.03078125 -4.8515625 35.51953125 C-9.89742834 38.38650048 -14.89302814 38.61720635 -20.6015625 38.08203125 C-24.6084005 36.74641858 -26.14171343 35.74955409 -28.5390625 32.26953125 C-29.78184431 28.54118583 -29.86613582 26.79671537 -28.6015625 23.08203125 C-25.32534272 18.96335496 -22.60723381 17.451002 -17.6015625 16.08203125 C-15.15015391 15.80382 -12.68976485 15.5964578 -10.2265625 15.45703125 C-8.35871094 15.34488281 -8.35871094 15.34488281 -6.453125 15.23046875 C-5.04160156 15.15699219 -5.04160156 15.15699219 -3.6015625 15.08203125 C-4.20339999 13.06157683 -4.87462346 11.06092086 -5.6015625 9.08203125 C-11.30546618 6.23007941 -18.75490536 8.56623125 -24.6015625 10.08203125 C-26.6015625 7.08203125 -26.6015625 7.08203125 -26.6015625 3.08203125 C-18.337254 -1.1834183 -9.02816502 -3.18561378 0 0 Z M-17.6015625 24.08203125 C-17.6015625 26.06203125 -17.6015625 28.04203125 -17.6015625 30.08203125 C-12.15530477 31.28020795 -9.36162215 31.02873484 -4.6015625 28.08203125 C-3.24537751 26.9566902 -3.24537751 26.9566902 -3.5390625 24.01953125 C-3.5596875 23.05015625 -3.5803125 22.08078125 -3.6015625 21.08203125 C-8.66389134 20.59212846 -12.92787096 22.37139905 -17.6015625 24.08203125 Z " fill="#3C414A" transform="translate(623.6015625,379.91796875)"/>
<path d="M0 0 C1.07765625 0.00902344 2.1553125 0.01804687 3.265625 0.02734375 C4.08546875 0.03894531 4.9053125 0.05054688 5.75 0.0625 C6.60144712 2.44655194 6.81967512 3.78576222 6.1953125 6.265625 C4.75 8.0625 4.75 8.0625 1.9296875 8.671875 C0.83914063 8.71828125 -0.25140625 8.7646875 -1.375 8.8125 C-2.47070312 8.86921875 -3.56640625 8.9259375 -4.6953125 8.984375 C-5.95988281 9.02304687 -5.95988281 9.02304687 -7.25 9.0625 C-7.58 11.7025 -7.91 14.3425 -8.25 17.0625 C-7.47914063 17.03929687 -6.70828125 17.01609375 -5.9140625 16.9921875 C-4.91117188 16.97414063 -3.90828125 16.95609375 -2.875 16.9375 C-1.87726562 16.91429687 -0.87953125 16.89109375 0.1484375 16.8671875 C2.75 17.0625 2.75 17.0625 4.75 19.0625 C4.09 21.0425 3.43 23.0225 2.75 25.0625 C-0.88 25.0625 -4.51 25.0625 -8.25 25.0625 C-8.25 34.6325 -8.25 44.2025 -8.25 54.0625 C-11.50303044 55.68901522 -14.64225602 55.17703156 -18.25 55.0625 C-19.25 54.0625 -19.25 54.0625 -19.36352539 51.28686523 C-19.35828857 50.07716064 -19.35305176 48.86745605 -19.34765625 47.62109375 C-19.34443359 46.31591797 -19.34121094 45.01074219 -19.33789062 43.66601562 C-19.32953401 42.2773431 -19.32106905 40.88867123 -19.3125 39.5 C-19.30748666 38.10742344 -19.30292347 36.71484519 -19.29882812 35.32226562 C-19.28699434 31.9023013 -19.2705088 28.48242156 -19.25 25.0625 C-20.03375 25.10375 -20.8175 25.145 -21.625 25.1875 C-24.25 25.0625 -24.25 25.0625 -26.25 23.0625 C-26.4375 20.5 -26.4375 20.5 -26.25 18.0625 C-25.25 17.0625 -25.25 17.0625 -22.1875 17 C-20.7334375 17.0309375 -20.7334375 17.0309375 -19.25 17.0625 C-19.3325 16.03125 -19.415 15 -19.5 13.9375 C-19.20486439 9.3628981 -18.17527181 7.54120161 -15.25 4.0625 C-10.23093038 0.42367453 -6.10316842 -0.06633879 0 0 Z " fill="#3C4049" transform="translate(661.25,362.9375)"/>
<path d="M0 0 C2.78498766 3.79271346 2.5883624 6.85498481 2.0625 11.4375 C1.0725 12.9225 1.0725 12.9225 0.0625 14.4375 C-0.5975 14.4375 -1.2575 14.4375 -1.9375 14.4375 C-1.9375 15.0975 -1.9375 15.7575 -1.9375 16.4375 C-10.81343956 17.86799123 -10.81343956 17.86799123 -14.875 16.3125 C-17.31057419 14.09834165 -18.684229 12.50105133 -19.9375 9.4375 C-19.86516394 5.38668081 -19.29628392 3.02693072 -17.1875 -0.4375 C-12.09000011 -5.25180545 -5.11543829 -4.46240361 0 0 Z " fill="#3D414A" transform="translate(645.9375,234.5625)"/>
<path d="M0 0 C11.22 0 22.44 0 34 0 C34 3.96 34 7.92 34 12 C33 13 33 13 30.0703125 13.20703125 C25.17652586 13.13333717 20.59143207 11.90318301 15.875 10.6875 C14.99457031 10.47416016 14.11414063 10.26082031 13.20703125 10.04101562 C4.30166769 7.79116887 4.30166769 7.79116887 1 5 C0.67 3.35 0.34 1.7 0 0 Z " fill="#353943" transform="translate(303,355)"/>
<path d="M0 0 C10.89 0 21.78 0 33 0 C33 3.96 33 7.92 33 12 C27.37452285 13.12509543 27.37452285 13.12509543 23.85546875 12.29296875 C23.09556641 12.11830078 22.33566406 11.94363281 21.55273438 11.76367188 C20.77220703 11.57353516 19.99167969 11.38339844 19.1875 11.1875 C18.41857422 11.00896484 17.64964844 10.83042969 16.85742188 10.64648438 C11.89147069 9.48566709 6.94511761 8.24614708 2 7 C2 6.34 2 5.68 2 5 C1.01 4.67 0.02 4.34 -1 4 C-0.67 2.68 -0.34 1.36 0 0 Z " fill="#2C303A" transform="translate(304,303)"/>
<path d="M0 0 C10.23 0 20.46 0 31 0 C31.495 6.435 31.495 6.435 32 13 C23.97100326 12.44627609 16.68253697 10.31876116 9 8 C7.74316406 7.66097656 6.48632812 7.32195312 5.19140625 6.97265625 C2.15417741 6.0469892 0.90279128 5.46243577 -1 3 C-0.67 2.01 -0.34 1.02 0 0 Z " fill="#2A2F37" transform="translate(304,407)"/>
<path d="M0 0 C3.63 0 7.26 0 11 0 C11.04933483 6.51447435 11.08568851 13.02884063 11.10986328 19.54345703 C11.11993825 21.76092421 11.13359859 23.97837805 11.15087891 26.19580078 C11.17506163 29.37796312 11.18646797 32.55995024 11.1953125 35.7421875 C11.20563507 36.73805878 11.21595764 37.73393005 11.22659302 38.75997925 C11.22674408 39.68078278 11.22689514 40.6015863 11.22705078 41.55029297 C11.231492 42.3630368 11.23593323 43.17578064 11.24050903 44.01315308 C11 46 11 46 9 48 C8.67 32.49 8.34 16.98 8 1 C5.36 1.33 2.72 1.66 0 2 C0 1.34 0 0.68 0 0 Z " fill="#363941" transform="translate(731,270)"/>
<path d="M0 0 C3.23518553 3.23518553 2.97142304 6.99637714 3.09765625 11.4296875 C3.08605469 12.56664062 3.07445312 13.70359375 3.0625 14.875 C3.05347656 16.02742188 3.04445313 17.17984375 3.03515625 18.3671875 C3.02355469 19.23601562 3.01195312 20.10484375 3 21 C0.64341603 22.17829199 -0.52573236 22.04414372 -3.1328125 21.87890625 C-3.93847656 21.83056641 -4.74414062 21.78222656 -5.57421875 21.73242188 C-6.41597656 21.67634766 -7.25773438 21.62027344 -8.125 21.5625 C-9.39923828 21.48418945 -9.39923828 21.48418945 -10.69921875 21.40429688 C-12.79979124 21.27448622 -14.89994191 21.1378826 -17 21 C-17 20.67 -17 20.34 -17 20 C-11.39 20 -5.78 20 0 20 C-0.08378906 18.64003906 -0.16757812 17.28007812 -0.25390625 15.87890625 C-0.35704548 14.1067868 -0.45989515 12.33465047 -0.5625 10.5625 C-0.61857422 9.66466797 -0.67464844 8.76683594 -0.73242188 7.84179688 C-0.78076172 6.98779297 -0.82910156 6.13378906 -0.87890625 5.25390625 C-0.9260376 4.46314697 -0.97316895 3.6723877 -1.02172852 2.85766602 C-1 1 -1 1 0 0 Z " fill="#35373C" transform="translate(652,283)"/>
<path d="M0 0 C0.99 0 1.98 0 3 0 C3.02698189 1.62490954 3.04638757 3.24994633 3.0625 4.875 C3.07410156 5.77992188 3.08570313 6.68484375 3.09765625 7.6171875 C3 10 3 10 2 12 C1.34 12 0.68 12 0 12 C0 8.04 0 4.08 0 0 Z " fill="#5D5F67" transform="translate(335,407)"/>
<path d="M0 0 C3.03333922 3.03333922 2.6646334 5.7743808 3 10 C2.67 10.33 2.34 10.66 2 11 C1.76924918 12.34747084 1.58846937 13.70377565 1.4375 15.0625 C1.293125 16.361875 1.14875 17.66125 1 19 C0.67 19 0.34 19 0 19 C-0.1938211 16.02111874 -0.38035102 13.04209754 -0.5625 10.0625 C-0.61857422 9.21236328 -0.67464844 8.36222656 -0.73242188 7.48632812 C-0.80493164 6.27299805 -0.80493164 6.27299805 -0.87890625 5.03515625 C-0.9260376 4.2862915 -0.97316895 3.53742676 -1.02172852 2.76586914 C-1 1 -1 1 0 0 Z " fill="#2C2F38" transform="translate(652,283)"/>
<path d="M0 0 C4.62 0 9.24 0 14 0 C13.67 0.66 13.34 1.32 13 2 C10.18745864 2.3566465 7.39844707 2.44413056 4.56640625 2.55859375 C3.29603516 2.77708984 3.29603516 2.77708984 2 3 C1.34 3.99 0.68 4.98 0 6 C0 4.02 0 2.04 0 0 Z " fill="#2E343D" transform="translate(528,276)"/>
<path d="M0 0 C4.95 0 9.9 0 15 0 C15 0.99 15 1.98 15 3 C12.69 3 10.38 3 8 3 C8 2.67 8 2.34 8 2 C5.36 1.67 2.72 1.34 0 1 C0 0.67 0 0.34 0 0 Z " fill="#303443" transform="translate(636,314)"/>
<path d="M0 0 C0.66 0.66 1.32 1.32 2 2 C1.98252112 4.59269983 1.86231408 7.0525154 1.625 9.625 C1.56828125 10.33140625 1.5115625 11.0378125 1.453125 11.765625 C1.31159079 13.51121361 1.15702613 15.25573673 1 17 C0.67 17 0.34 17 0 17 C-0.19493195 14.72979256 -0.38070418 12.45879711 -0.5625 10.1875 C-0.66691406 8.92292969 -0.77132812 7.65835937 -0.87890625 6.35546875 C-1 3 -1 3 0 0 Z " fill="#2E353F" transform="translate(549,280)"/>
<path d="M0 0 C3.375 -0.125 3.375 -0.125 7 0 C7.66 0.66 8.32 1.32 9 2 C6.69 2 4.38 2 2 2 C1.67 2.99 1.34 3.98 1 5 C0.34 5 -0.32 5 -1 5 C-0.67 3.35 -0.34 1.7 0 0 Z " fill="#272A54" transform="translate(560,388)"/>
<path d="M0 0 C0.66 0.33 1.32 0.66 2 1 C2.37756808 2.32148827 2.7018576 3.65835921 3 5 C3.6469365 6.6744239 4.30959426 8.34302621 5 10 C1.00003714 8.66667905 0.16217663 6.5042173 -2 3 C-1.34 2.01 -0.68 1.02 0 0 Z " fill="#474A52" transform="translate(562,390)"/>
<path d="M0 0 C0.66 0.33 1.32 0.66 2 1 C1.67 2.98 1.34 4.96 1 7 C0.01 7 -0.98 7 -2 7 C-2.33 5.02 -2.66 3.04 -3 1 C-2.01 0.67 -1.02 0.34 0 0 Z " fill="#56575D" transform="translate(666,363)"/>
<path d="M0 0 C0.66 0.66 1.32 1.32 2 2 C1.01 4.97 0.02 7.94 -1 11 C-1.66 10.34 -2.32 9.68 -3 9 C-2.67582137 5.19090105 -2.14418558 3.21627837 0 0 Z " fill="#2D2F34" transform="translate(597,400)"/>
<path d="M0 0 C0.66 1.32 1.32 2.64 2 4 C1 7 1 7 -3 9 C-2.01 6.03 -1.02 3.06 0 0 Z " fill="#383942" transform="translate(621,401)"/>
<path d="M0 0 C-0.99 0.66 -1.98 1.32 -3 2 C-3.72382467 4.05925139 -3.72382467 4.05925139 -4 6 C-4.66 5.67 -5.32 5.34 -6 5 C-6 3.35 -6 1.7 -6 0 C-3.50907189 -1.24546405 -2.58919267 -0.7767578 0 0 Z " fill="#353841" transform="translate(579,392)"/>
<path d="M0 0 C0.99 0 1.98 0 3 0 C3 1.32 3 2.64 3 4 C3.99 4 4.98 4 6 4 C6 4.66 6 5.32 6 6 C4.125 5.8125 4.125 5.8125 2 5 C0.75 2.4375 0.75 2.4375 0 0 Z " fill="#36373F" transform="translate(603,406)"/>
<path d="M0 0 C0 1.32 0 2.64 0 4 C-2.31 4 -4.62 4 -7 4 C-3.375 0 -3.375 0 0 0 Z " fill="#373941" transform="translate(694,384)"/>
<path d="M0 0 C-1.24546405 3.73639216 -2.63404953 4.18756513 -6 6 C-6 4.68 -6 3.36 -6 2 C-2.25 0 -2.25 0 0 0 Z " fill="#575A5F" transform="translate(603,381)"/>
</svg>
