<?xml version="1.0" encoding="UTF-8"?>
<svg version="1.1" xmlns="http://www.w3.org/2000/svg" width="200" height="200">
<path d="M0 0 C1.00707001 -0.00189835 2.01414001 -0.00379669 3.05172729 -0.00575256 C6.37701225 -0.0094539 9.70207824 0.00123533 13.02734375 0.01245117 C15.33992487 0.01364351 17.65250648 0.01409602 19.96508789 0.01383972 C24.81041498 0.01540351 29.65566808 0.02368508 34.50097656 0.03710938 C40.71183769 0.05409895 46.9226175 0.05792361 53.13349915 0.05716419 C57.90841447 0.05743613 62.68331202 0.06292114 67.45822144 0.07016563 C69.74836086 0.07334774 72.03850229 0.07531864 74.3286438 0.07605934 C77.52902658 0.07822774 80.72932323 0.08698293 83.9296875 0.09765625 C85.3496553 0.09697647 85.3496553 0.09697647 86.79830933 0.09628296 C90.97945109 0.1166695 94.88985325 0.17473561 98.96484375 1.24291992 C98.96484375 1.90291992 98.96484375 2.56291992 98.96484375 3.24291992 C103.41984375 4.23291992 103.41984375 4.23291992 107.96484375 5.24291992 C107.96484375 5.90291992 107.96484375 6.56291992 107.96484375 7.24291992 C108.92390625 7.42854492 108.92390625 7.42854492 109.90234375 7.61791992 C110.58296875 7.82416992 111.26359375 8.03041992 111.96484375 8.24291992 C112.29484375 8.90291992 112.62484375 9.56291992 112.96484375 10.24291992 C113.95484375 10.57291992 114.94484375 10.90291992 115.96484375 11.24291992 C115.96484375 12.23291992 115.96484375 13.22291992 115.96484375 14.24291992 C116.95484375 14.24291992 117.94484375 14.24291992 118.96484375 14.24291992 C119.29484375 15.23291992 119.62484375 16.22291992 119.96484375 17.24291992 C120.92390625 18.20198242 120.92390625 18.20198242 121.90234375 19.18041992 C125.52892356 22.80699973 126.22877476 25.93795409 126.58984375 30.99291992 C126.70199219 32.47018555 126.70199219 32.47018555 126.81640625 33.97729492 C126.86539063 34.72495117 126.914375 35.47260742 126.96484375 36.24291992 C127.62484375 36.24291992 128.28484375 36.24291992 128.96484375 36.24291992 C129.02019287 36.99500732 129.07554199 37.74709473 129.13256836 38.52197266 C129.38444092 41.90849222 129.64329714 45.29444191 129.90234375 48.68041992 C129.98935547 49.86442383 130.07636719 51.04842773 130.16601562 52.26831055 C130.25302734 53.39301758 130.34003906 54.51772461 130.4296875 55.67651367 C130.50823975 56.71864014 130.58679199 57.7607666 130.66772461 58.83447266 C130.70771254 61.19085887 130.70771254 61.19085887 131.96484375 62.24291992 C132.37889808 64.78769177 132.72824471 67.30893061 133.02734375 69.86791992 C133.11677246 70.62322998 133.20620117 71.37854004 133.29833984 72.15673828 C134.10712495 79.53979092 134.15926878 86.82236463 133.96484375 94.24291992 C134.62484375 94.24291992 135.28484375 94.24291992 135.96484375 94.24291992 C136.91891575 102.09859855 137.21161429 109.89597529 137.27734375 117.80541992 C137.30634766 118.97266602 137.33535156 120.13991211 137.36523438 121.3425293 C137.41839317 128.60074948 136.56395157 133.91181607 132.96484375 140.24291992 C132.63484375 140.90291992 132.30484375 141.56291992 131.96484375 142.24291992 C131.30484375 142.24291992 130.64484375 142.24291992 129.96484375 142.24291992 C129.83529297 143.3644043 129.83529297 143.3644043 129.703125 144.50854492 C128.81957251 147.78096154 127.72322433 148.83700522 125.15234375 150.99291992 C124.46527344 151.58588867 123.77820313 152.17885742 123.0703125 152.78979492 C120.97816965 154.23372283 119.44874015 154.81870391 116.96484375 155.24291992 C116.96484375 155.90291992 116.96484375 156.56291992 116.96484375 157.24291992 C108.20834178 161.15225161 100.87975804 162.97853955 91.3125 162.88989258 C90.12204071 162.89865417 88.93158142 162.90741577 87.70504761 162.91644287 C83.81209694 162.93825537 79.92030379 162.92394721 76.02734375 162.90698242 C73.29694721 162.90809974 70.5665705 162.9152067 67.83618164 162.92147827 C62.13057163 162.93053244 56.42528698 162.91869933 50.71972656 162.89477539 C44.15691453 162.86757181 37.59487961 162.87638902 31.03208637 162.90390742 C25.36111283 162.92671942 19.69037095 162.9297401 14.01936626 162.91671407 C10.64812814 162.90898514 7.2775418 162.90970519 3.90628052 162.92439651 C0.14272735 162.93720105 -3.61936702 162.91759096 -7.3828125 162.88989258 C-8.47514191 162.90001373 -9.56747131 162.91013489 -10.69290161 162.92056274 C-18.93460041 162.80909268 -25.53850463 160.58979266 -33.03515625 157.24291992 C-33.03515625 156.58291992 -33.03515625 155.92291992 -33.03515625 155.24291992 C-33.75703125 155.20166992 -34.47890625 155.16041992 -35.22265625 155.11791992 C-39.17711788 153.88764297 -40.56913942 151.48767891 -43.03515625 148.24291992 C-43.63328125 147.68604492 -44.23140625 147.12916992 -44.84765625 146.55541992 C-46.03515625 145.24291992 -46.03515625 145.24291992 -46.03515625 142.24291992 C-46.69515625 142.24291992 -47.35515625 142.24291992 -48.03515625 142.24291992 C-50.03515625 139.24291992 -50.03515625 139.24291992 -50.03515625 135.24291992 C-50.69515625 135.24291992 -51.35515625 135.24291992 -52.03515625 135.24291992 C-53.08486762 131.80034612 -53.16427131 128.632591 -53.16796875 125.04370117 C-53.16925781 123.83391602 -53.17054687 122.62413086 -53.171875 121.37768555 C-53.16800781 120.11633789 -53.16414063 118.85499023 -53.16015625 117.55541992 C-53.16402344 116.3134082 -53.16789062 115.07139648 -53.171875 113.79174805 C-53.16487781 107.18989518 -52.92828315 100.78542891 -52.03515625 94.24291992 C-51.37515625 94.24291992 -50.71515625 94.24291992 -50.03515625 94.24291992 C-50.05835938 93.27354492 -50.0815625 92.30416992 -50.10546875 91.30541992 C-50.22563002 83.89920099 -50.02964094 76.66054236 -49.09765625 69.30541992 C-49.01080566 68.61383789 -48.92395508 67.92225586 -48.83447266 67.2097168 C-48.17426565 62.38202932 -48.17426565 62.38202932 -47.03515625 61.24291992 C-46.80693025 59.39292032 -46.64010687 57.53526479 -46.5 55.67651367 C-46.36948242 53.98945312 -46.36948242 53.98945312 -46.23632812 52.26831055 C-46.14931641 51.08430664 -46.06230469 49.90030273 -45.97265625 48.68041992 C-45.88177734 47.49254883 -45.79089844 46.30467773 -45.69726562 45.08081055 C-45.47249489 42.13513087 -45.25198429 39.18919319 -45.03515625 36.24291992 C-44.37515625 36.24291992 -43.71515625 36.24291992 -43.03515625 36.24291992 C-42.70515625 32.61291992 -42.37515625 28.98291992 -42.03515625 25.24291992 C-41.04515625 24.91291992 -40.05515625 24.58291992 -39.03515625 24.24291992 C-39.36515625 23.25291992 -39.69515625 22.26291992 -40.03515625 21.24291992 C-39.37515625 20.25291992 -38.71515625 19.26291992 -38.03515625 18.24291992 C-37.04515625 18.24291992 -36.05515625 18.24291992 -35.03515625 18.24291992 C-35.03515625 16.92291992 -35.03515625 15.60291992 -35.03515625 14.24291992 C-34.04515625 14.24291992 -33.05515625 14.24291992 -32.03515625 14.24291992 C-32.03515625 13.25291992 -32.03515625 12.26291992 -32.03515625 11.24291992 C-31.04515625 10.91291992 -30.05515625 10.58291992 -29.03515625 10.24291992 C-28.37515625 9.25291992 -27.71515625 8.26291992 -27.03515625 7.24291992 C-26.04515625 7.24291992 -25.05515625 7.24291992 -24.03515625 7.24291992 C-24.03515625 6.58291992 -24.03515625 5.92291992 -24.03515625 5.24291992 C-23.44347656 5.04956055 -22.85179688 4.85620117 -22.2421875 4.65698242 C-21.45199219 4.3965918 -20.66179688 4.13620117 -19.84765625 3.86791992 C-19.07035156 3.61268555 -18.29304688 3.35745117 -17.4921875 3.09448242 C-15.06235331 2.31625647 -15.06235331 2.31625647 -13.00878906 1.20487976 C-8.67133058 -0.19827292 -4.5311457 -0.02689794 0 0 Z M-10.03515625 23.24291992 C-10.03515625 23.90291992 -10.03515625 24.56291992 -10.03515625 25.24291992 C-10.75703125 25.30479492 -11.47890625 25.36666992 -12.22265625 25.43041992 C-16.04774507 26.53544558 -17.59206385 28.12119074 -20.03515625 31.24291992 C-20.92042734 34.92733496 -20.92042734 34.92733496 -21.03515625 38.24291992 C-21.69515625 38.24291992 -22.35515625 38.24291992 -23.03515625 38.24291992 C-24.1008496 44.85789934 -24.58517647 51.50299816 -25.09765625 58.18041992 C-25.23397461 59.92162109 -25.23397461 59.92162109 -25.37304688 61.69799805 C-25.59574238 64.54615633 -25.81638672 67.39445785 -26.03515625 70.24291992 C-26.36515625 70.24291992 -26.69515625 70.24291992 -27.03515625 70.24291992 C-27.08526855 70.95311279 -27.13538086 71.66330566 -27.18701172 72.39501953 C-27.42115458 75.65735703 -27.66558401 78.91884837 -27.91015625 82.18041992 C-27.98878906 83.29739258 -28.06742188 84.41436523 -28.1484375 85.56518555 C-28.51710077 90.40034617 -28.89239102 95.06914384 -30.09765625 99.77416992 C-31.47787915 105.40782483 -31.25052997 111.03888127 -31.16015625 116.80541992 C-31.15113281 117.90950195 -31.14210938 119.01358398 -31.1328125 120.15112305 C-31.10945753 122.84862162 -31.07670679 125.5456507 -31.03515625 128.24291992 C-30.04515625 128.57291992 -29.05515625 128.90291992 -28.03515625 129.24291992 C-27.72578125 130.02666992 -27.41640625 130.81041992 -27.09765625 131.61791992 C-25.88349867 134.61760335 -24.78391075 135.61084694 -22.03515625 137.24291992 C-21.37515625 137.24291992 -20.71515625 137.24291992 -20.03515625 137.24291992 C-20.03515625 137.90291992 -20.03515625 138.56291992 -20.03515625 139.24291992 C-14.07937669 140.2795605 -8.29091262 140.38462812 -2.25390625 140.37231445 C-1.19123535 140.37406677 -0.12856445 140.37581909 0.96630859 140.37762451 C4.46583711 140.38201218 7.96531475 140.37911588 11.46484375 140.37573242 C13.90429697 140.37640635 16.34375013 140.37737711 18.78320312 140.37863159 C23.89063152 140.38010438 28.9980424 140.37796742 34.10546875 140.37329102 C40.64564407 140.367594 47.18577834 140.37087523 53.72595215 140.37686348 C58.76172188 140.38048036 63.79748192 140.37932531 68.83325195 140.37673569 C71.24454758 140.37606954 73.65584408 140.37688392 76.06713867 140.37921524 C79.43931403 140.38176022 82.8114233 140.37787508 86.18359375 140.37231445 C87.67221924 140.3753508 87.67221924 140.3753508 89.19091797 140.37844849 C94.22469852 140.36310427 99.00332954 140.10650242 103.96484375 139.24291992 C103.96484375 138.58291992 103.96484375 137.92291992 103.96484375 137.24291992 C105.10953125 136.84073242 105.10953125 136.84073242 106.27734375 136.43041992 C108.86968354 135.28496746 110.26559912 134.47876811 111.96484375 132.24291992 C111.96484375 131.25291992 111.96484375 130.26291992 111.96484375 129.24291992 C112.95484375 128.91291992 113.94484375 128.58291992 114.96484375 128.24291992 C114.99412291 124.24293555 115.01173594 120.24297916 115.02734375 116.24291992 C115.03572266 115.11756836 115.04410156 113.9922168 115.05273438 112.83276367 C115.07017791 106.86707596 114.88265598 101.14004419 113.96484375 95.24291992 C113.30484375 95.24291992 112.64484375 95.24291992 111.96484375 95.24291992 C111.63484375 86.99291992 111.30484375 78.74291992 110.96484375 70.24291992 C110.30484375 70.24291992 109.64484375 70.24291992 108.96484375 70.24291992 C108.9397876 69.48672363 108.91473145 68.73052734 108.88891602 67.95141602 C108.77247489 64.50676533 108.64996713 61.06235585 108.52734375 57.61791992 C108.48802734 56.42811523 108.44871094 55.23831055 108.40820312 54.01245117 C108.34536133 52.28188477 108.34536133 52.28188477 108.28125 50.51635742 C108.24459229 49.45852051 108.20793457 48.40068359 108.17016602 47.31079102 C107.96422316 44.23364719 107.52303554 41.27423902 106.96484375 38.24291992 C106.30484375 38.24291992 105.64484375 38.24291992 104.96484375 38.24291992 C104.93390625 36.69604492 104.93390625 36.69604492 104.90234375 35.11791992 C103.78950456 30.51818459 102.30071384 29.19959704 98.75390625 26.30932617 C96.88248418 24.98691426 96.88248418 24.98691426 93.96484375 25.24291992 C93.96484375 24.58291992 93.96484375 23.92291992 93.96484375 23.24291992 C88.60287563 22.34604996 83.45026485 22.09987624 78.01953125 22.11352539 C77.15193176 22.11177307 76.28433228 22.11002075 75.39044189 22.10821533 C72.54022179 22.10383639 69.69006442 22.10672084 66.83984375 22.11010742 C64.84879545 22.10943325 62.85774724 22.10846227 60.86669922 22.10720825 C56.70083836 22.10573664 52.53499898 22.1078686 48.36914062 22.11254883 C43.03964527 22.11824578 37.71020029 22.11496391 32.38070679 22.10897636 C28.27139916 22.10535628 24.1621034 22.106516 20.05279541 22.10910416 C18.08807367 22.10976942 16.12335084 22.10895905 14.15863037 22.1066246 C11.40911012 22.10407432 8.65967052 22.10797211 5.91015625 22.11352539 C5.10475403 22.11150116 4.29935181 22.10947693 3.46954346 22.10739136 C-1.13408781 22.12454486 -5.49298743 22.48317375 -10.03515625 23.24291992 Z " fill="#004754" transform="translate(58.03515625,18.757080078125)"/>
<path d="M0 0 C1.79158489 -0.02696365 3.58328473 -0.04637917 5.375 -0.0625 C6.37273438 -0.07410156 7.37046875 -0.08570312 8.3984375 -0.09765625 C11 0 11 0 13 1 C13 1.66 13 2.32 13 3 C13.78375 3.144375 14.5675 3.28875 15.375 3.4375 C18 4 18 4 20 5 C20 5.66 20 6.32 20 7 C22.97 7.495 22.97 7.495 26 8 C26 8.66 26 9.32 26 10 C30.29 10.66 34.58 11.32 39 12 C39 12.66 39 13.32 39 14 C46.92 14 54.84 14 63 14 C63 13.34 63 12.68 63 12 C66.96 11.34 70.92 10.68 75 10 C75 9.34 75 8.68 75 8 C78.465 7.505 78.465 7.505 82 7 C82 6.34 82 5.68 82 5 C85 3 85 3 88 3 C88 2.34 88 1.68 88 1 C92.33622854 -0.44540951 96.46837187 -0.5348333 101 0 C104.55680172 2.10504591 105.69468936 3.08406808 107 7 C107.2295082 13.54098361 107.2295082 13.54098361 106 16 C105.34 16 104.68 16 104 16 C103.505 17.485 103.505 17.485 103 19 C102.34 19 101.68 19 101 19 C100.505 20.485 100.505 20.485 100 22 C98.35448038 22.71727778 96.68577711 23.38325228 95 24 C94.34 24.66 93.68 25.32 93 26 C91.68 26 90.36 26 89 26 C89 26.66 89 27.32 89 28 C85.7 28.66 82.4 29.32 79 30 C79 30.66 79 31.32 79 32 C76.24921116 32.91692961 74.64051087 33.10886083 71.8125 33.0625 C70.554375 33.041875 69.29625 33.02125 68 33 C68 33.66 68 34.32 68 35 C56.04283323 36.87898335 44.97460163 37.59931056 33 35 C33 34.34 33 33.68 33 33 C31.453125 33.0928125 31.453125 33.0928125 29.875 33.1875 C25.66579171 32.98382863 23.65745774 31.98112294 20 30 C17.68431867 29.22654369 15.36510734 28.61492791 13 28 C13 27.34 13 26.68 13 26 C11.02 25.67 9.04 25.34 7 25 C6.67 24.01 6.34 23.02 6 22 C4.02 21.67 2.04 21.34 0 21 C0 20.34 0 19.68 0 19 C-0.639375 18.71125 -1.27875 18.4225 -1.9375 18.125 C-4 17 -4 17 -5 15 C-5.0952699 13.52331663 -5.12985959 12.04224543 -5.125 10.5625 C-5.12757812 9.78003906 -5.13015625 8.99757813 -5.1328125 8.19140625 C-5 6 -5 6 -4 3 C-3.01 3 -2.02 3 -1 3 C-0.67 2.01 -0.34 1.02 0 0 Z " fill="#004754" transform="translate(49,105)"/>
</svg>
