<?xml version="1.0" encoding="UTF-8"?>
<svg version="1.1" xmlns="http://www.w3.org/2000/svg" width="500" height="500">
<path d="M0 0 C7.08109171 5.65378751 12.13830479 12.36680575 13.19824219 21.51782227 C13.35135981 25.37119686 13.37301438 29.20791943 13.3125 33.0625 C13.30696106 33.74935883 13.30142212 34.43621765 13.29571533 35.14389038 C13.18796461 46.54574018 12.08454093 57.23587441 8.8125 68.1875 C8.59819336 68.93741211 8.38388672 69.68732422 8.16308594 70.45996094 C5.46485303 79.76434777 2.02222685 88.43356281 -2.55957031 96.9753418 C-5.32912531 101.83370986 -5.32912531 101.83370986 -6.1875 107.1875 C-4.42710969 109.62310851 -2.77697666 111.57349897 -0.6875 113.6875 C-0.16929687 114.24308594 0.34890625 114.79867187 0.8828125 115.37109375 C4.54132248 119.20081479 8.42882359 122.2207695 12.8125 125.1875 C13.60269531 124.69121094 14.39289063 124.19492188 15.20703125 123.68359375 C38.09189728 109.90036587 72.9544841 98.63776913 99.8125 105.1875 C109.29091185 108.57785501 116.23549971 113.74264233 121.15234375 122.6015625 C126.00869514 133.48946774 125.12483017 143.57041237 121.75 154.6875 C118.23889733 162.19092246 111.43051382 169.03521842 103.8125 172.1875 C77.7313462 179.31938943 43.60831603 170.75597238 20.5065918 157.84277344 C17.91297403 156.33647616 15.35232811 154.78266121 12.8125 153.1875 C4.97544737 158.46243927 -0.94689568 165.17722114 -7.1875 172.1875 C-6.66800781 173.20328125 -6.14851562 174.2190625 -5.61328125 175.265625 C7.26614778 200.61310841 18.97703969 232.12609862 12.8125 261.1875 C8.93317502 271.20582411 2.45839187 278.71692576 -7.30859375 283.25 C-12.83462798 285.04952268 -18.41499374 285.18057022 -24.1875 285.1875 C-24.94160156 285.19910156 -25.69570312 285.21070313 -26.47265625 285.22265625 C-34.93674874 284.78815458 -43.18607839 279.11892865 -48.7578125 273.02734375 C-58.3553369 260.6764312 -56.97764133 244.44254906 -55.16967773 229.76293945 C-52.41674054 209.54697135 -46.05557439 190.49173274 -35.1875 173.1875 C-36.0125 172.23875 -36.8375 171.29 -37.6875 170.3125 C-40.1875 167.4375 -40.1875 167.4375 -40.1875 165.1875 C-40.8475 165.1875 -41.5075 165.1875 -42.1875 165.1875 C-42.72375 164.506875 -43.26 163.82625 -43.8125 163.125 C-46.88300744 159.32726712 -50.46191489 156.32531076 -54.1875 153.1875 C-54.77015625 153.47882813 -55.3528125 153.77015625 -55.953125 154.0703125 C-57.71302461 154.9502623 -59.47495207 155.82616176 -61.23828125 156.69921875 C-63.12574486 157.65170038 -64.99996236 158.63120199 -66.85546875 159.64453125 C-88.30534641 171.11068588 -118.75159606 178.49001629 -142.8125 172.9375 C-151.19190266 170.29137285 -158.06755146 165.23114737 -162.6953125 157.75 C-167.74911712 147.81566406 -168.36919298 137.63477727 -165.26171875 126.9765625 C-161.80964434 118.01372204 -155.65582724 111.32365221 -147.1875 106.875 C-124.74971156 97.89236778 -93.43534809 107.25925113 -72.1875 116.1875 C-68.7937413 117.75142333 -65.4856562 119.43278701 -62.1875 121.1875 C-60.64785783 121.96236909 -59.10631232 122.73347298 -57.5625 123.5 C-56.44875 124.056875 -55.335 124.61375 -54.1875 125.1875 C-43.81983021 115.98572415 -43.81983021 115.98572415 -35.1875 105.1875 C-35.82365234 104.18396484 -35.82365234 104.18396484 -36.47265625 103.16015625 C-50.95074338 79.45427733 -61.42538221 45.32611683 -54.9375 17.52734375 C-52.2458076 9.12982422 -47.19261018 1.78423727 -39.28125 -2.3203125 C-25.98571936 -8.07951513 -12.14464639 -8.63920842 0 0 Z M-28.1875 16.1875 C-31.15532546 18.73342871 -32.94376016 21.45628047 -34.1875 25.1875 C-35.60233463 45.67539372 -30.22950165 65.49770845 -22.1875 84.1875 C-19.80071148 82.04047828 -18.59018312 80.22946337 -17.46875 77.23046875 C-17.17758301 76.45437256 -16.88641602 75.67827637 -16.58642578 74.87866211 C-16.28978027 74.05245361 -15.99313477 73.22624512 -15.6875 72.375 C-15.37925293 71.52494385 -15.07100586 70.6748877 -14.75341797 69.79907227 C-9.7799688 55.72704325 -4.49302529 36.27092413 -9.375 21.625 C-14.51266395 14.7157278 -20.13194468 12.63921968 -28.1875 16.1875 Z M-22.1875 124.1875 C-23.25667049 125.35029842 -24.29204877 126.54422018 -25.3125 127.75 C-28.76118104 131.75561089 -32.39993379 135.50354502 -36.1875 139.1875 C-35.5275 139.8475 -34.8675 140.5075 -34.1875 141.1875 C-33.73890625 141.63738281 -33.2903125 142.08726562 -32.828125 142.55078125 C-31.59356606 143.78240076 -30.35293911 145.00794238 -29.109375 146.23046875 C-28.39265625 146.93816406 -27.6759375 147.64585937 -26.9375 148.375 C-25.90882813 149.38626953 -25.90882813 149.38626953 -24.859375 150.41796875 C-23.1875 152.1875 -23.1875 152.1875 -22.1875 154.1875 C-21.5275 154.1875 -20.8675 154.1875 -20.1875 154.1875 C-18.58479881 152.60311079 -18.58479881 152.60311079 -16.9375 150.5625 C-13.84073448 146.91389996 -10.61205589 143.52853014 -7.1875 140.1875 C-8.84919474 135.88172496 -12.01830306 133.09738145 -15.25 129.9375 C-15.80494141 129.38320312 -16.35988281 128.82890625 -16.93164062 128.2578125 C-19.19221296 125.47005682 -19.19221296 125.47005682 -22.1875 124.1875 Z M-143.5 131.375 C-145.6725072 134.99584533 -146.3778103 137.97585032 -146.1875 142.1875 C-144.97653277 146.1231435 -143.57826687 147.84217114 -140.5 150.5625 C-125.86419377 157.9730348 -102.70270166 149.58595151 -88.3984375 144.93359375 C-84.25087837 143.53397574 -80.18310209 141.9750062 -76.1875 140.1875 C-78.32515561 137.81528451 -80.1293402 136.59345019 -83.109375 135.46875 C-84.26590576 135.03199951 -84.26590576 135.03199951 -85.44580078 134.58642578 C-86.26806152 134.28978027 -87.09032227 133.99313477 -87.9375 133.6875 C-88.78425293 133.37925293 -89.63100586 133.07100586 -90.50341797 132.75341797 C-97.9702102 130.11667627 -105.34806628 128.37673448 -113.1875 127.1875 C-114.0021875 127.05730469 -114.816875 126.92710937 -115.65625 126.79296875 C-125.5228483 125.45239833 -135.83902022 124.12812724 -143.5 131.375 Z M34.8125 138.1875 C34.8125 138.8475 34.8125 139.5075 34.8125 140.1875 C48.47262055 146.2738616 62.68722747 151.59143015 77.8125 152.1875 C79.02035156 152.2390625 80.22820312 152.290625 81.47265625 152.34375 C89.32260895 152.54615695 94.9830674 152.51305989 101.1875 147.125 C103.57142861 142.81559059 103.69817193 139.00093438 102.8125 134.1875 C101.06789679 130.55724056 98.75633571 128.56738408 94.98828125 127.05078125 C76.68875174 122.0763704 51.11923172 129.71775548 34.8125 138.1875 Z M-22.1875 195.1875 C-29.90037421 213.54414062 -36.36404822 232.96666493 -34.1875 253.1875 C-32.25329004 257.79354235 -30.5206914 260.58758516 -26.1875 263.1875 C-21.7435237 264.61067423 -19.08150184 264.6429349 -14.875 262.5 C-11.47086118 259.5708573 -9.60741965 257.44725894 -8.1875 253.1875 C-6.74320995 232.93385109 -12.34711349 213.6124083 -20.1875 195.1875 C-20.8475 195.1875 -21.5075 195.1875 -22.1875 195.1875 Z " fill="#F9F6FC" transform="translate(271.1875,110.8125)"/>
<path d="M0 0 C0.33 0.99 0.66 1.98 1 3 C0.38125 3.2475 -0.2375 3.495 -0.875 3.75 C-3.10724301 4.79521082 -3.10724301 4.79521082 -3.84375 6.78125 C-5.33590297 9.64457057 -7.31382204 11.50485569 -9.625 13.75 C-10.85089844 14.94882813 -10.85089844 14.94882813 -12.1015625 16.171875 C-12.72804687 16.77515625 -13.35453125 17.3784375 -14 18 C-14.99 17.67 -15.98 17.34 -17 17 C-16.19175781 16.27554688 -15.38351563 15.55109375 -14.55078125 14.8046875 C-13.47116263 13.82833675 -12.39174635 12.85176223 -11.3125 11.875 C-10.78205078 11.400625 -10.25160156 10.92625 -9.70507812 10.4375 C-6.12294242 7.18500869 -3.02250068 3.77952775 0 0 Z " fill="#D8CDFB" transform="translate(235,218)"/>
<path d="M0 0 C6.93 0 13.86 0 21 0 C21.33 0.99 21.66 1.98 22 3 C14.41 3 6.82 3 -1 3 C-0.67 2.01 -0.34 1.02 0 0 Z " fill="#DCC8F5" transform="translate(345,235)"/>
<path d="M0 0 C5.72398793 0.74660712 11.34853777 1.82877141 17 3 C17 3.33 17 3.66 17 4 C15.41870971 4.22331199 13.83478911 4.42804644 12.25 4.625 C10.92742187 4.79902344 10.92742187 4.79902344 9.578125 4.9765625 C6.77140122 5.00207817 5.36615134 4.44843844 3 3 C3 2.34 3 1.68 3 1 C2.01 0.67 1.02 0.34 0 0 Z " fill="#CCAFF1" transform="translate(323,258)"/>
<path d="M0 0 C2.78211944 0.37596209 4.5879284 0.67318459 6.8125 2.4375 C8 4 8 4 8 6 C8.99 6 9.98 6 11 6 C11 6.66 11 7.32 11 8 C5.33289301 6.68206814 3.33562767 4.51290803 0 0 Z " fill="#DBCDF9" transform="translate(224,384)"/>
<path d="M0 0 C0.33 0.66 0.66 1.32 1 2 C0.00390625 3.9453125 0.00390625 3.9453125 -1.4375 6.125 C-1.91058594 6.84945313 -2.38367188 7.57390625 -2.87109375 8.3203125 C-3.24363281 8.87460937 -3.61617188 9.42890625 -4 10 C-4.66 8.68 -5.32 7.36 -6 6 C-4.625 4.5 -4.625 4.5 -3 3 C-2.34 3 -1.68 3 -1 3 C-0.67 2.01 -0.34 1.02 0 0 Z " fill="#DFD2F2" transform="translate(281,374)"/>
<path d="M0 0 C0.33 0.99 0.66 1.98 1 3 C-0.14453125 4.82421875 -0.14453125 4.82421875 -1.8125 6.6875 C-2.35519531 7.31011719 -2.89789063 7.93273437 -3.45703125 8.57421875 C-5 10 -5 10 -7 10 C-5.6062718 5.56541027 -3.39417765 3.12621626 0 0 Z " fill="#D6CCF7" transform="translate(116,223)"/>
<path d="M0 0 C0.33 0 0.66 0 1 0 C2.12029814 5.48946087 1.79217969 8.83430559 0 14 C-0.66 14 -1.32 14 -2 14 C-1.43393721 9.30976546 -0.81462495 4.65499974 0 0 Z " fill="#C7B8F1" transform="translate(261,159)"/>
<path d="M0 0 C0.33 0.99 0.66 1.98 1 3 C-1.57784846 5.64752004 -3.91648098 7.94432065 -7 10 C-5.6062718 5.56541027 -3.39417765 3.12621626 0 0 Z " fill="#D6C6F3" transform="translate(227,112)"/>
<path d="M0 0 C0.66 0 1.32 0 2 0 C1.39009109 3.55780196 0.4216319 6.6828589 -1 10 C-1.33 10 -1.66 10 -2 10 C-2.25 3.375 -2.25 3.375 0 0 Z " fill="#CDB2F0" transform="translate(245,310)"/>
<path d="M0 0 C8.57142857 -0.28571429 8.57142857 -0.28571429 12 2 C12 2.66 12 3.32 12 4 C10.5608866 3.71640113 9.12374482 3.42278601 7.6875 3.125 C6.88699219 2.96257812 6.08648437 2.80015625 5.26171875 2.6328125 C3 2 3 2 0 0 Z " fill="#D8C1F4" transform="translate(305,274)"/>
<path d="M0 0 C-0.5 1.9375 -0.5 1.9375 -2 4 C-4.69658452 4.68790422 -7.2017019 4.81946464 -10 5 C-7.31217681 1.88778367 -4.19734673 0 0 0 Z " fill="#D4AAF7" transform="translate(305,226)"/>
<path d="M0 0 C3 4 3 4 3.07421875 6.140625 C2.71614583 8.09375 2.35807292 10.046875 2 12 C1.67 12 1.34 12 1 12 C0.67 8.04 0.34 4.08 0 0 Z " fill="#D6C7FD" transform="translate(104,247)"/>
<path d="M0 0 C0 0.66 0 1.32 0 2 C-3.3125 3.125 -3.3125 3.125 -7 4 C-7.99 3.34 -8.98 2.68 -10 2 C-6.38026598 0.68373308 -3.90432869 0 0 0 Z " fill="#C8B7F0" transform="translate(324,220)"/>
<path d="M0 0 C2.01136276 2.55991624 3.62845496 5.04590299 5 8 C3.68 8 2.36 8 1 8 C0.67 5.36 0.34 2.72 0 0 Z " fill="#BFA1EF" transform="translate(246,188)"/>
</svg>
