<?xml version="1.0" encoding="UTF-8"?>
<svg version="1.1" xmlns="http://www.w3.org/2000/svg" width="512" height="512">
<path d="M0 0 C168.96 0 337.92 0 512 0 C512 168.96 512 337.92 512 512 C343.04 512 174.08 512 0 512 C0 343.04 0 174.08 0 0 Z " fill="#865BF0" transform="translate(0,0)"/>
<path d="M0 0 C7.96665742 4.77204105 12.21186145 11.49892925 14.99121094 20.21801758 C16.1091588 24.94319254 16.08274561 29.63389732 16.03515625 34.46875 C16.02379639 36.10372437 16.02379639 36.10372437 16.01220703 37.77172852 C15.53521414 61.79371708 8.79969593 85.35861848 -3.69921875 105.9140625 C-4.69296601 108.55301356 -4.17752673 110.0905859 -3.40234375 112.78125 C-1.92421978 114.86814098 -1.92421978 114.86814098 0.01953125 116.734375 C0.715625 117.435625 1.41171875 118.136875 2.12890625 118.859375 C2.86109375 119.57609375 3.59328125 120.2928125 4.34765625 121.03125 C5.064375 121.7634375 5.78109375 122.495625 6.51953125 123.25 C7.57140625 124.29414063 7.57140625 124.29414063 8.64453125 125.359375 C9.28229492 125.99262695 9.92005859 126.62587891 10.57714844 127.27832031 C12.9722329 129.0598742 14.63439067 129.54116103 17.59765625 129.78125 C19.95782504 128.71114828 22.0201656 127.61161348 24.22265625 126.28125 C44.59646172 114.75389839 67.08819829 109.70177775 90.34765625 109.34375 C91.54648437 109.29798828 92.7453125 109.25222656 93.98046875 109.20507812 C104.05692019 109.0793957 111.59964862 111.76111343 119.47265625 118.09375 C127.89554719 128.74622972 130.72188721 137.00942074 129.59765625 150.78125 C127.80167891 158.98560104 124.07597872 166.55369496 117.1640625 171.53515625 C111.21569604 175.20316826 106.01788037 178.03042146 98.9140625 178.046875 C97.28645996 178.05340088 97.28645996 178.05340088 95.62597656 178.06005859 C94.48225586 178.05055176 93.33853516 178.04104492 92.16015625 178.03125 C90.39236816 178.01892334 90.39236816 178.01892334 88.58886719 178.00634766 C65.28332373 177.70689815 40.8456016 171.9957458 20.90625 159.4765625 C17.84978451 157.54853794 17.84978451 157.54853794 15.13793945 157.96142578 C12.20296695 158.90862786 10.82402039 160.03905418 8.64453125 162.203125 C7.94328125 162.89921875 7.24203125 163.5953125 6.51953125 164.3125 C5.44445312 165.41078125 5.44445312 165.41078125 4.34765625 166.53125 C3.61546875 167.24796875 2.88328125 167.9646875 2.12890625 168.703125 C1.08476562 169.755 1.08476562 169.755 0.01953125 170.828125 C-0.6137207 171.46588867 -1.24697266 172.10365234 -1.89941406 172.76074219 C-3.68096795 175.15582665 -4.16225478 176.81798442 -4.40234375 179.78125 C-3.33224203 182.14141879 -2.23270723 184.20375935 -0.90234375 186.40625 C10.42643659 206.42909433 15.71314591 228.70114862 15.91015625 251.59375 C15.93916016 252.70556641 15.96816406 253.81738281 15.99804688 254.96289062 C16.07555315 265.15198428 13.81551504 274.052524 7.29296875 282.06640625 C4.40445041 284.98820245 1.24854868 286.9383521 -2.40234375 288.78125 C-3.57796875 289.379375 -4.75359375 289.9775 -5.96484375 290.59375 C-14.00903048 293.37583039 -24.47512297 293.0164754 -32.3515625 289.8125 C-42.19200965 284.86416086 -48.01475056 278.65803047 -51.79150391 268.16894531 C-53.03850061 263.29459368 -52.9310474 258.34751455 -52.90234375 253.34375 C-52.89589844 252.16087402 -52.88945312 250.97799805 -52.8828125 249.75927734 C-52.4044068 226.10652188 -45.97009079 202.58738523 -33.5546875 182.375 C-32.14688006 179.2062402 -32.40639869 178.05713266 -33.40234375 174.78125 C-34.88046772 172.69435902 -34.88046772 172.69435902 -36.82421875 170.828125 C-37.5203125 170.126875 -38.21640625 169.425625 -38.93359375 168.703125 C-39.66578125 167.98640625 -40.39796875 167.2696875 -41.15234375 166.53125 C-41.8690625 165.7990625 -42.58578125 165.066875 -43.32421875 164.3125 C-44.02546875 163.61640625 -44.72671875 162.9203125 -45.44921875 162.203125 C-46.08698242 161.56987305 -46.72474609 160.93662109 -47.38183594 160.28417969 C-49.78293124 158.49815471 -51.43032337 158.01742342 -54.40234375 157.78125 C-56.98188139 158.86659708 -59.2836952 159.99291395 -61.71484375 161.34375 C-82.12889032 172.06540326 -103.70121831 177.919984 -126.77734375 178.09375 C-128.05351562 178.12275391 -129.3296875 178.15175781 -130.64453125 178.18164062 C-138.19495557 178.23234079 -143.84220555 177.60700789 -150.40234375 173.78125 C-151.41296875 173.245 -152.42359375 172.70875 -153.46484375 172.15625 C-154.10421875 171.7025 -154.74359375 171.24875 -155.40234375 170.78125 C-155.40234375 170.12125 -155.40234375 169.46125 -155.40234375 168.78125 C-156.06234375 168.78125 -156.72234375 168.78125 -157.40234375 168.78125 C-165.28663681 159.29374415 -167.56490321 149.8775387 -166.64794922 137.75146484 C-165.42969801 127.97881346 -159.96364808 120.73940633 -152.40234375 114.78125 C-137.8796227 105.42851372 -115.70834787 108.92062587 -99.62695312 112.28076172 C-84.73591825 115.63091772 -69.07666471 120.55855846 -56.26171875 129.03125 C-53.62337973 130.09545397 -52.11292537 129.56504476 -49.40234375 128.78125 C-47.31545277 127.30312603 -47.31545277 127.30312603 -45.44921875 125.359375 C-44.74796875 124.66328125 -44.04671875 123.9671875 -43.32421875 123.25 C-42.6075 122.5178125 -41.89078125 121.785625 -41.15234375 121.03125 C-40.42015625 120.31453125 -39.68796875 119.5978125 -38.93359375 118.859375 C-38.2375 118.158125 -37.54140625 117.456875 -36.82421875 116.734375 C-36.1909668 116.09661133 -35.55771484 115.45884766 -34.90527344 114.80175781 C-33.11834002 112.39944121 -32.63823255 110.75497649 -32.40234375 107.78125 C-33.48498671 105.15532738 -34.60650875 102.81730552 -35.96484375 100.34375 C-36.71357979 98.90632116 -37.45963469 97.46749287 -38.203125 96.02734375 C-38.57646973 95.31046387 -38.94981445 94.59358398 -39.33447266 93.85498047 C-45.01880039 82.81641627 -48.17121073 71.90332851 -50.40234375 59.78125 C-50.58039551 58.86907715 -50.75844727 57.9569043 -50.94189453 57.01708984 C-52.31937185 49.52898034 -52.76838458 42.26258876 -52.77734375 34.65625 C-52.80183594 33.55410156 -52.82632813 32.45195312 -52.8515625 31.31640625 C-52.88884498 20.84002819 -50.37143926 13.08659718 -43.11328125 5.4609375 C-31.23037618 -6.20492821 -14.69186778 -7.45343536 0 0 Z " fill="#FDFCFE" transform="translate(274.40234375,112.21875)"/>
<path d="M0 0 C0.66 0 1.32 0 2 0 C10.04553876 16.80984323 15.15531663 33.77636434 15.25 52.5 C15.270625 53.51964844 15.29125 54.53929687 15.3125 55.58984375 C15.34841021 62.49358208 14.53078699 66.89774498 10.0625 72.375 C5.18705781 74.96196933 0.39152548 74.8535974 -5 74 C-8.9916182 72.06906424 -11.31934234 69.05526429 -13 65 C-13.41875438 61.8040666 -13.33243808 58.59572224 -13.3125 55.375 C-13.30758545 54.44220215 -13.3026709 53.5094043 -13.29760742 52.54833984 C-12.98725493 33.79668336 -8.22293116 16.83076548 0 0 Z " fill="#885EF0" transform="translate(255,310)"/>
<path d="M0 0 C1.06734375 -0.02900391 2.1346875 -0.05800781 3.234375 -0.08789062 C9.49555239 -0.1385096 13.25920681 0.08020773 18 4.3125 C21.38570467 8.14963196 21.51291172 11.94651462 21.3515625 16.875 C20.69307852 21.44048895 18.47332121 24.1416858 14.9453125 26.9453125 C10.78407103 28.87692326 7.10066064 28.80351309 2.5625 28.75 C1.64090088 28.74097656 0.71930176 28.73195313 -0.23022461 28.72265625 C-18.93438014 28.26711318 -36.27745222 23.67377389 -53 15.3125 C-53 14.6525 -53 13.9925 -53 13.3125 C-35.99493072 5.17352201 -18.92731526 0.17144307 0 0 Z " fill="#8F5BEE" transform="translate(363,241.6875)"/>
<path d="M0 0 C1.32354492 0.0163147 1.32354492 0.0163147 2.67382812 0.03295898 C21.27502536 0.47213551 39.34538476 4.64438196 55.875 13.375 C55.875 14.035 55.875 14.695 55.875 15.375 C47.36211433 19.55481293 39.05972079 22.95796821 29.875 25.375 C28.78316406 25.67535156 27.69132812 25.97570312 26.56640625 26.28515625 C18.43078118 28.23516672 10.59515438 28.68248358 2.25 28.75 C0.68415161 28.77078613 0.68415161 28.77078613 -0.91333008 28.79199219 C-10.1557346 28.73484283 -10.1557346 28.73484283 -14.125 25.375 C-18.05233098 21.0230927 -18.75911612 17.45042133 -18.51171875 11.77734375 C-17.78034307 7.23394938 -15.5864436 4.52819184 -12.05078125 1.73828125 C-7.97856615 -0.15918613 -4.44076683 -0.07466701 0 0 Z " fill="#815FF1" transform="translate(146.125,241.625)"/>
<path d="M0 0 C3.16171246 2.2058459 5.15725055 4.36208731 6.6875 7.875 C7.30104144 11.38555008 7.30455719 14.81804994 7.25 18.375 C7.2346521 19.88936646 7.2346521 19.88936646 7.21899414 21.43432617 C6.73097262 39.21462293 1.63488079 56.98023841 -6.3125 72.875 C-6.9725 72.875 -7.6325 72.875 -8.3125 72.875 C-16.10852755 55.30795125 -21.51063454 38.70110222 -21.75 19.3125 C-21.77223633 18.27706055 -21.79447266 17.24162109 -21.81738281 16.17480469 C-21.79948394 10.08322336 -21.3786503 6.5058934 -17.3125 1.875 C-12.21400004 -2.49514282 -6.06408707 -2.05950127 0 0 Z " fill="#875DF0" transform="translate(263.3125,129.125)"/>
<path d="M0 0 C0.66 0 1.32 0 2 0 C3.48046875 1.50390625 3.48046875 1.50390625 5.1875 3.5625 C10.85095856 10.6578539 10.85095856 10.6578539 18 16 C16.47401851 19.78066201 14.19469402 21.80958687 11.125 24.4375 C7.66844657 27.40394511 4.7551344 30.36706696 2 34 C-1.28099409 32.59896549 -3.07414935 31.00653684 -5.3125 28.25 C-8.58296551 24.37074654 -12.07255716 21.20607578 -16 18 C-14.88273561 14.64820682 -14.04550033 13.98292595 -11.375 11.8125 C-7.63912834 8.66791738 -4.52856451 5.28268255 -1.4453125 1.50390625 C-0.96835938 1.00761719 -0.49140625 0.51132813 0 0 Z " fill="#885DF0" transform="translate(255,239)"/>
</svg>
